<svg width="24" height="24" viewBox="0 0 24 24" fill="none" xmlns="http://www.w3.org/2000/svg">
<mask id="mask0_50184_56" style="mask-type:alpha" maskUnits="userSpaceOnUse" x="0" y="0" width="24" height="24">
<rect width="24" height="24" fill="#D9D9D9"/>
</mask>
<g mask="url(#mask0_50184_56)">
<path d="M7.0751 20.75C6.55843 20.75 6.11676 20.5667 5.7501 20.2C5.38343 19.8333 5.2001 19.3917 5.2001 18.875V6.075H4.2251V4.2H9.0501V3.25H14.9751V4.2H19.8001V6.075H18.8251V18.875C18.8251 19.3917 18.6418 19.8333 18.2751 20.2C17.9084 20.5667 17.4668 20.75 16.9501 20.75H7.0751ZM16.9501 6.075H7.0751V18.875H16.9501V6.075ZM9.1251 16.9H11.0001V8.025H9.1251V16.9ZM13.0251 16.9H14.9001V8.025H13.0251V16.9Z" fill="#1C1B1F"/>
</g>
</svg>
